simulation
nRows=56
nColumns=15
endheader
time  TH_x TH_y TH_z SC_y  SC_z  SC_x  AC_y  AC_z  AC_x  GH_y  GH_z  GH_yy  EL_x  PS_y
0.500156  0.000000  0.000000  0.000000  -33.548123  17.906685  17.634023  44.827556  -17.173600  -7.398983  1.866626  43.065613  -7.485879  31.652376  130.178488
0.500468  0.000000  0.000000  0.000000  -35.391152  2.498091  23.634023  46.588772  1.700995  -13.590584  -2.891177  34.182121  -2.457058  27.803609  126.289620
0.500780  0.000000  0.000000  0.000000  -35.281237  16.677092  23.634023  45.745226  -19.381503  -8.402125  -11.657686  30.159038  4.797099  21.672397  129.741885
0.501092  0.000000  0.000000  0.000000  -15.607867  5.913518  23.634023  50.286061  -16.091164  -11.492690  -7.975161  28.742965  4.631585  32.414615  122.035274
0.501404  0.000000  0.000000  0.000000  -19.702508  17.990902  23.634023  36.982437  -20.436729  -20.785149  -12.413374  40.489106  7.201220  31.581049  118.618411
0.501716  0.000000  0.000000  0.000000  -25.699121  14.256323  23.634023  49.219157  -10.957525  -4.906094  6.996263  34.279300  -2.145524  29.871883  118.932459
0.502028  0.000000  0.000000  0.000000  -22.672385  7.054573  23.634023  52.359394  -14.950764  -7.166063  7.035753  40.239967  2.903447  17.812726  126.842834
0.502340  0.000000  0.000000  0.000000  -19.977146  20.643012  23.634023  43.505251  -11.258222  -6.608815  -3.769735  33.574679  5.135406  35.672060  124.112608
0.502652  0.000000  0.000000  0.000000  -18.781841  4.380788  23.634023  48.009074  -20.655777  -13.477807  -7.671744  25.424314  2.878127  32.231636  125.367487
0.502964  0.000000  0.000000  0.000000  -22.896925  19.535113  23.634023  44.687503  -19.299720  -7.556567  -9.719305  32.936064  0.648337  33.121616  130.813054
0.503276  0.000000  0.000000  0.000000  -21.671279  10.241923  23.634023  50.316367  -21.645073  -5.140345  -3.145413  32.310629  -2.919730  29.008779  117.572876
0.503588  0.000000  0.000000  0.000000  -50.741245  18.638431  23.634023  47.962236  -23.222321  -5.282487  -9.541412  27.887927  6.466360  21.210115  116.656730
0.503900  0.000000  0.000000  0.000000  -35.119443  1.689395  2.185719  45.061572  14.401836  0.235593  -3.060477  32.421724  -2.529857  27.351150  126.431527
0.504212  0.000000  0.000000  0.000000  -35.119443  1.689395  -7.814281  42.731650  21.346003  7.802851  -3.060477  32.421724  -2.529857  27.351150  126.431527
0.504524  0.000000  0.000000  0.000000  -15.387127  10.506193  -7.814281  50.655613  9.505250  8.746609  -1.456734  31.613006  -2.604162  26.778060  118.431431
0.504836  0.000000  0.000000  0.000000  -29.860796  14.605307  -7.814281  42.895794  -2.965103  1.772972  -9.844777  27.377130  -8.539396  32.163151  135.098622
0.505148  0.000000  0.000000  0.000000  -16.074133  9.462827  -7.814281  52.573258  15.767210  12.470742  2.843928  41.123322  -5.482008  20.712200  119.519185
0.505460  0.000000  0.000000  0.000000  -18.099605  11.310682  -7.814281  43.080195  -2.862945  5.471871  -12.060083  31.965946  -9.322844  26.757509  132.293368
0.505772  0.000000  0.000000  0.000000  -25.686144  15.896047  -7.814281  47.934652  0.036568  11.970890  -12.887308  39.069306  -7.739843  24.513241  119.373316
0.506084  0.000000  0.000000  0.000000  -46.921777  17.632467  -7.814281  47.317204  1.667363  12.542717  6.494762  25.809461  -6.546194  31.185272  128.368200
0.506396  0.000000  0.000000  0.000000  -16.728815  15.075512  -7.814281  49.174150  6.009731  13.183053  -5.061100  25.673907  -9.492718  28.698934  118.754902
0.506708  0.000000  0.000000  0.000000  -30.312917  12.487799  -7.814281  50.206323  -2.535199  10.371889  -2.599212  37.445570  -0.852202  32.586132  125.315434
0.507020  0.000000  0.000000  0.000000  -42.478902  18.113793  -7.814281  50.222855  5.240175  16.069125  -7.393219  38.030689  2.042402  23.216037  124.865509
0.507332  0.000000  0.000000  0.000000  -48.249729  11.062268  -7.814281  47.705695  -3.274225  6.308862  3.514802  22.602880  7.191489  19.412564  130.863493
0.507644  0.000000  0.000000  0.000000  -29.788318  13.177781  -7.814281  49.027260  4.373959  11.565329  0.448264  38.152284  5.386200  20.427370  116.873942
0.507956  0.000000  0.000000  0.000000  -27.931612  9.000769  -7.814281  50.570279  6.365845  9.105608  -6.804734  22.464730  3.345725  19.684239  131.216024
0.508268  0.000000  0.000000  0.000000  -35.119443  1.689395  -1.814281  44.255694  17.214008  3.192384  -3.060477  32.421724  -2.529857  27.351150  126.431527
0.508580  0.000000  0.000000  0.000000  -18.246267  10.957053  -1.814281  52.750772  7.077940  8.762676  -8.824948  42.072055  -1.880274  17.405239  126.460748
0.508892  0.000000  0.000000  0.000000  -32.827970  11.609325  -1.814281  53.905127  11.054307  10.514138  3.740191  29.821114  6.097495  29.488303  125.522385
0.509204  0.000000  0.000000  0.000000  -16.701901  8.009563  -1.814281  53.897619  4.740918  8.095919  -8.978613  39.474308  3.294846  29.685658  128.935915
0.509516  0.000000  0.000000  0.000000  -32.280439  20.494702  -1.814281  44.348147  -0.709074  4.288522  2.908036  32.461273  2.550824  34.722550  130.237214
0.509828  0.000000  0.000000  0.000000  -31.352542  19.855324  -1.814281  51.281018  10.263481  12.899666  -9.325929  38.828713  2.518418  20.299134  126.364103
0.510140  0.000000  0.000000  0.000000  -16.851747  19.805934  -1.814281  43.274972  3.178521  6.989501  1.730590  41.476103  2.924359  22.645112  129.348246
0.510452  0.000000  0.000000  0.000000  -31.820800  2.262684  -1.814281  52.066459  -4.278289  1.966176  3.072428  35.694175  -11.605038  29.785744  134.650081
0.510764  0.000000  0.000000  0.000000  -26.261664  10.422352  -1.814281  48.369159  -1.597079  6.352905  -7.070971  27.774607  -12.209607  33.507475  129.012243
0.511076  0.000000  0.000000  0.000000  -30.408495  9.881445  -1.814281  46.454368  -6.087257  -0.540122  -2.651844  39.361060  -4.170795  23.277051  124.213457
0.511388  0.000000  0.000000  0.000000  -19.216544  18.882597  -1.814281  46.669432  0.368927  10.696557  6.836503  26.328323  -3.060673  35.083155  134.270913
0.511700  0.000000  0.000000  0.000000  -28.538113  12.889769  -1.814281  48.467520  0.410173  3.588271  -7.514350  32.450481  2.088684  23.043024  121.779288
0.512012  0.000000  0.000000  0.000000  -46.775098  10.732432  -1.814281  51.579443  -1.083571  6.759625  4.396377  41.148643  2.616197  22.229838  128.685558
0.512324  0.000000  0.000000  0.000000  -16.992582  11.993354  -1.814281  51.728918  12.304611  8.612765  -5.285886  23.419454  -2.461222  25.720867  132.490312
0.512637  0.000000  0.000000  0.000000  -23.086752  11.144583  -1.814281  52.691139  2.815163  7.048772  -9.603996  36.273509  -10.490572  30.049019  127.588208
0.512949  0.000000  0.000000  0.000000  -23.978152  19.053493  -1.814281  44.026056  -6.302622  5.336707  -10.886677  31.244140  -3.467603  28.097975  125.266557
0.513261  0.000000  0.000000  0.000000  -17.480889  4.216022  -1.814281  52.500512  -7.055850  4.696121  4.838249  37.948421  -1.541899  27.752341  129.974757
0.513573  0.000000  0.000000  0.000000  -47.180725  17.952167  -1.814281  50.330497  -7.710745  9.526428  3.513226  39.855779  0.283722  23.604902  134.817950
0.513885  0.000000  0.000000  0.000000  -18.733405  18.776460  -1.814281  45.623892  -0.645802  9.740580  1.494383  26.672068  1.285895  30.936909  126.409820
0.514197  0.000000  0.000000  0.000000  -35.119443  1.689395  4.185719  45.404735  12.981801  -1.214012  -3.060477  32.421724  -2.529857  27.351150  126.431527
0.514509  0.000000  0.000000  0.000000  -33.637157  6.828704  4.185719  47.056292  -10.645280  -1.893530  -8.876959  37.194162  -12.107270  21.641224  117.561105
0.514821  0.000000  0.000000  0.000000  -25.802758  15.783083  4.185719  45.600274  -10.785590  1.922606  -10.719294  37.207912  -2.609863  24.116249  120.213286
0.515133  0.000000  0.000000  0.000000  -28.106282  19.416602  4.185719  47.861489  -10.348973  7.219842  -9.919195  31.186410  -10.635912  33.110782  119.461183
0.515445  0.000000  0.000000  0.000000  -18.915405  -2.995899  4.185719  53.940899  -10.939821  -1.896888  -5.789429  31.608964  1.515633  37.051218  118.423002
0.515757  0.000000  0.000000  0.000000  -15.764539  20.943167  4.185719  46.649377  -8.563036  7.479185  -6.662117  27.266497  -6.522397  33.023230  128.571106
0.516069  0.000000  0.000000  0.000000  -39.725081  17.571059  4.185719  49.677844  -6.768941  5.767380  -1.791354  37.411515  -9.023605  22.776262  121.422421
0.516381  0.000000  0.000000  0.000000  -25.558885  20.024351  4.185719  43.196691  -10.443564  1.978254  -9.744418  39.488585  -2.166946  34.932918  118.127819
0.516693  0.000000  0.000000  0.000000  -34.221832  11.833455  4.185719  50.982740  -1.242470  2.350497  -6.259194  34.901590  -10.835210  30.847709  129.718208
0.517005  0.000000  0.000000  0.000000  -40.659888  10.976729  4.185719  55.338026  1.837361  7.718408  1.118342  23.002947  -4.049470  35.902394  130.759494
0.517317  0.000000  0.000000  0.000000  -45.249543  16.010094  4.185719  53.282743  -6.923977  8.077629  -7.038390  27.868833  -10.337611  37.260768  120.733646
